<svg width="171" height="151" viewBox="0 0 171 151" fill="none" xmlns="http://www.w3.org/2000/svg">
<g clip-path="url(#clip0_2_2)">
<path fill-rule="evenodd" clip-rule="evenodd" d="M5.07257 25.1988C5.07257 19.8675 7.19172 14.7474 10.958 10.9752C14.7242 7.20304 19.8363 5.08057 25.1593 5.08057H145.679C151.002 5.08057 156.114 7.20304 159.881 10.9752C163.647 14.7474 165.766 19.8675 165.766 25.1988V125.79C165.766 131.121 163.647 136.241 159.881 140.013C156.114 143.786 151.002 145.908 145.679 145.908H25.1593C19.8363 145.908 14.7242 143.786 10.958 140.013C7.19172 136.241 5.07257 131.121 5.07257 125.79V25.1988Z" fill="#262626"/>
<path fill-rule="evenodd" clip-rule="evenodd" d="M0.000595093 25.1987C0.000595093 18.5194 2.65204 12.1017 7.37241 7.384C12.0827 2.65621 18.4904 0.000610352 25.1592 0.000610352H145.679C152.348 0.000610352 158.746 2.65621 163.466 7.384C168.186 12.1017 170.838 18.5194 170.838 25.1987V125.79C170.838 132.469 168.186 138.887 163.466 143.604C158.756 148.332 152.348 150.988 145.679 150.988H25.1592C18.4904 150.988 12.0827 148.332 7.37241 143.604C2.65204 138.877 0.000595093 132.469 0.000595093 125.79V25.1987ZM5.07248 25.1987V125.79C5.07248 131.121 7.19163 136.241 10.9579 140.013C14.7241 143.785 19.8362 145.908 25.1592 145.908H145.679C151.002 145.908 156.114 143.785 159.881 140.013C163.647 136.241 165.766 131.121 165.766 125.79V25.1987C165.766 19.8673 163.647 14.7473 159.881 10.9751C156.114 7.20293 151.002 5.08046 145.679 5.08046H25.1592C19.8362 5.08046 14.7241 7.20293 10.9579 10.9751C7.19163 14.7473 5.07248 19.8673 5.07248 25.1987Z" fill="#00FF0B"/>
<path fill-rule="evenodd" clip-rule="evenodd" d="M96.0995 77.2662H65.9695C64.6337 77.2662 63.3582 77.7994 62.4142 78.7348C61.4801 79.6804 60.9478 80.9579 60.9478 82.2958C60.9478 83.6336 61.4801 84.9111 62.4142 85.8567C63.3582 86.7922 64.6337 87.3253 65.9695 87.3253H96.0995C97.4353 87.3253 98.7108 86.7922 99.6549 85.8567C100.589 84.9111 101.121 83.6336 101.121 82.2958C101.121 80.9579 100.589 79.6804 99.6549 78.7348C98.7108 77.7994 97.4353 77.2662 96.0995 77.2662Z" fill="#00FF0B"/>
<path fill-rule="evenodd" clip-rule="evenodd" d="M32.2841 73.7053C31.8221 74.168 31.4505 74.7313 31.1894 75.3349C30.9383 75.9485 30.8078 76.6023 30.8078 77.2662C30.8078 77.9301 30.9383 78.584 31.1894 79.1976C31.4505 79.8011 31.8221 80.3644 32.2841 80.8271C33.2282 81.7727 34.5037 82.3058 35.8395 82.3058C36.5023 82.3058 37.1552 82.1751 37.7678 81.9236C38.3704 81.662 38.9328 81.2899 39.3948 80.8271L59.4815 60.7089C59.9535 60.2462 60.3251 59.6829 60.5762 59.0793C60.8273 58.4657 60.9579 57.8119 60.9579 57.148C60.9579 56.4841 60.8273 55.8303 60.5762 55.2167C60.3251 54.6131 59.9535 54.0498 59.4815 53.5871L39.3948 33.4689C38.9328 33.0061 38.3704 32.634 37.7678 32.3724C37.1552 32.1209 36.5023 31.9902 35.8395 31.9902C35.1766 31.9902 34.5238 32.1209 33.9112 32.3724C33.3086 32.634 32.7461 33.0061 32.2841 33.4689C31.8221 33.9316 31.4505 34.4949 31.1894 35.0984C30.9383 35.712 30.8078 36.3659 30.8078 37.0298C30.8078 37.6937 30.9383 38.3475 31.1894 38.9611C31.4505 39.5647 31.8221 40.128 32.2841 40.5907L48.8255 57.148L32.2841 73.7053Z" fill="#00FF0B"/>
</g>
<defs>
<clipPath id="clip0_2_2">
<rect width="171" height="151" fill="white"/>
</clipPath>
</defs>
</svg>
